<svg version="1.0" xmlns="http://www.w3.org/2000/svg" width="400" height="400" viewBox="0 0 300 300"><path d="M0 150v150h300V0H0v150zm186.9-40.4c.5.5.5 5.1-.1 10.5l-1.1 9.6-5.9-1.8c-7.2-2.3-13.6-2.4-18.3-.4-7 2.9-5.6 7.3 5.5 17.4 9.6 8.7 13.6 15.8 12.6 22.2-1.5 9.4-9 18-19.2 21.9-5 2-7.7 2.3-17.9 2.3-6.6 0-14.6-.5-17.8-1.2-5.9-1.3-5.9-1.3-5.3-4.4.3-1.8.8-6.4 1.2-10.2l.6-7.1 6.7 2.3c7.4 2.5 18.1 3 22.1 1 1.7-.9 2.6-2.2 2.8-4.4.3-2.8-.8-4.3-9.1-13.1C133 143 131 139.9 131 133.8c.1-10.7 8.1-20.4 20.5-24.5 4.6-1.5 34-1.3 35.4.3zM79.4 134.2c5 13.6 9.4 24.8 9.7 24.8.3 0 1.1-2.6 1.7-5.8 1.1-6 7.8-38 8.7-42 .5-2.1.9-2.2 12.5-2.2 6.6 0 12 .1 12 .2 0 .2-1.1 4.3-2.4 9.3-2.4 9-9.7 40.9-13.9 60.5l-2.2 10.5-15.8.3c-11.1.2-15.7-.1-15.7-.9 0-.6-2.8-7.9-6.1-16.2-3.4-8.4-7.6-19.1-9.4-24l-3.1-8.8-3.1 13.8c-1.7 7.6-4.1 18.9-5.4 25L44.7 190h-12c-11.9 0-11.9 0-11.3-2.3 1.2-4.3 13.5-58.3 15.1-66.2.9-4.4 1.8-9 2.1-10.3.4-2.2.5-2.2 16-2l15.6.3 9.2 24.7zm182.5-23.6c6.3 1.8 12.7 7.3 15.2 12.9 8.1 18.3-3.1 48.7-22.3 60.3-8.6 5.1-15.9 6.2-43.5 6.2-13.4 0-24.3-.2-24.3-.4s1.8-7.6 4-16.3c4.3-17.4 13-58.1 13-61.1 0-1 .3-2.2.7-2.5.3-.4 12.2-.7 26.3-.7 20.3 0 26.7.3 30.9 1.6z"/><path d="M225.6 128.7c-.3 1-2.4 10.3-4.6 20.8-2.2 10.4-4.3 19.8-4.6 20.9-.6 1.7 0 1.8 8.8 1.4 8-.3 10.1-.8 14-3.1 8.1-4.7 13.8-16.1 13.8-27.4 0-10.9-4.3-14.3-18.4-14.3-7.2 0-8.5.3-9 1.7z"/></svg>